<svg viewBox="0 0 12 12" width="168px" height="168px" xmlns="http://www.w3.org/2000/svg"><path fill-rule="evenodd" d="M 1,1 11,1 11,3 12,3 12,11 10,11 10,12 7,12 7,11 5,11 5,12 2,12 2,11 0,11 0,3 1,3z" fill="#13C9BA"/><path fill-rule="evenodd" d="M 2,2 10,2 10,4 11,4 11,5 10,5 10,6 8,6 8,5 9,5 9,3 7,3 7,5 5,5 5,3 3,3 3,5 4,5 4,6 2,6 2,5 1,5 1,4 2,4z" fill="#ffffff"/><path fill-rule="evenodd" d="M 1,6 2,6 2,7 1,7z" fill="#ffffff"/><path fill-rule="evenodd" d="M 5,6 7,6 7,7 9,7 9,8 8,8 8,9 7,9 7,8 5,8 5,9 4,9 4,8 3,8 3,7 5,7z" fill="#ffffff"/><path fill-rule="evenodd" d="M 10,6 11,6 11,7 10,7z" fill="#ffffff"/><path fill-rule="evenodd" d="M 1,8 2,8 2,9 3,9 3,10 1,10z" fill="#ffffff"/><path fill-rule="evenodd" d="M 10,8 11,8 11,10 9,10 9,9 10,9z" fill="#ffffff"/><path fill-rule="evenodd" d="M 5,9 7,9 7,10 5,10z" fill="#ffffff"/><path fill-rule="evenodd" d="M 3,10 4,10 4,11 3,11z" fill="#ffffff"/><path fill-rule="evenodd" d="M 8,10 9,10 9,11 8,11z" fill="#ffffff"/></svg>